<svg width="414" height="317" viewBox="0 0 414 317" fill="none" xmlns="http://www.w3.org/2000/svg">
<g filter="url(#filter0_f_7_9055)">
<path d="M98.1642 260C99.7642 260.018 115.982 285.341 115.982 295.182C115.982 299.908 114.105 304.44 110.763 307.781C107.422 311.123 102.89 313 98.1642 313C93.4386 313 88.9065 311.123 85.565 307.781C82.2234 304.44 80.3462 299.908 80.3462 295.182C80.3462 285.342 96.5652 259.982 98.1642 260Z" fill="#42A0F0"/>
<path d="M84.5793 301.842C86.3597 302.386 88.6225 300.147 89.6333 296.841C90.6441 293.534 90.0202 290.413 88.2398 289.869C86.4594 289.324 84.1967 291.563 83.1859 294.87C82.175 298.176 82.7989 301.297 84.5793 301.842Z" fill="white"/>
<path d="M191.164 260C192.764 260.018 208.982 285.341 208.982 295.182C208.982 299.908 207.105 304.44 203.763 307.781C200.422 311.123 195.89 313 191.164 313C186.439 313 181.906 311.123 178.565 307.781C175.223 304.44 173.346 299.908 173.346 295.182C173.346 285.342 189.565 259.982 191.164 260Z" fill="#42A0F0"/>
<path d="M177.579 301.842C179.36 302.386 181.622 300.147 182.633 296.841C183.644 293.534 183.02 290.413 181.24 289.869C179.459 289.324 177.197 291.563 176.186 294.87C175.175 298.176 175.799 301.297 177.579 301.842Z" fill="white"/>
<path d="M284.164 260C285.764 260.018 301.982 285.341 301.982 295.182C301.982 299.908 300.105 304.44 296.763 307.781C293.422 311.123 288.89 313 284.164 313C279.439 313 274.906 311.123 271.565 307.781C268.223 304.44 266.346 299.908 266.346 295.182C266.346 285.342 282.565 259.982 284.164 260Z" fill="#42A0F0"/>
<path d="M270.579 301.842C272.36 302.386 274.622 300.147 275.633 296.841C276.644 293.534 276.02 290.413 274.24 289.869C272.459 289.324 270.197 291.563 269.186 294.87C268.175 298.176 268.799 301.297 270.579 301.842Z" fill="white"/>
<path d="M145.164 182C146.764 182.018 162.982 207.341 162.982 217.182C162.982 221.908 161.105 226.44 157.763 229.781C154.422 233.123 149.89 235 145.164 235C140.439 235 135.906 233.123 132.565 229.781C129.223 226.44 127.346 221.908 127.346 217.182C127.346 207.342 143.565 181.982 145.164 182Z" fill="#42A0F0"/>
<path d="M131.579 223.842C133.36 224.386 135.622 222.147 136.633 218.841C137.644 215.534 137.02 212.413 135.24 211.869C133.459 211.324 131.197 213.563 130.186 216.87C129.175 220.176 129.799 223.297 131.579 223.842Z" fill="white"/>
<path d="M243.164 182C244.764 182.018 260.982 207.341 260.982 217.182C260.982 221.908 259.105 226.44 255.763 229.781C252.422 233.123 247.89 235 243.164 235C238.439 235 233.906 233.123 230.565 229.781C227.223 226.44 225.346 221.908 225.346 217.182C225.346 207.342 241.565 181.982 243.164 182Z" fill="#42A0F0"/>
<path d="M229.579 223.842C231.36 224.386 233.622 222.147 234.633 218.841C235.644 215.534 235.02 212.413 233.24 211.869C231.459 211.324 229.197 213.563 228.186 216.87C227.175 220.176 227.799 223.297 229.579 223.842Z" fill="white"/>
<g filter="url(#filter1_d_7_9055)">
<path d="M283.345 249H91.913C73.3426 248.986 55.4976 241.789 42.1137 228.915C28.7298 216.041 20.8447 198.489 20.1092 179.933C19.3737 161.377 25.8448 143.256 38.1677 129.364C50.4906 115.471 67.71 106.884 86.221 105.4C88.8608 86.7599 97.2781 69.4166 110.289 55.8099C123.299 42.2032 140.248 33.0179 158.752 29.5463C177.255 26.0747 196.381 28.4915 213.439 36.4567C230.497 44.4218 244.628 57.5345 253.845 73.9499C270.75 68.098 289.015 67.4142 306.311 71.9859C323.606 76.5576 339.148 86.1775 350.953 99.6186C362.759 113.06 370.293 129.713 372.594 147.453C374.896 165.194 371.861 183.218 363.877 199.227C359.192 213.69 350.045 226.298 337.749 235.24C325.453 244.182 310.641 248.999 295.437 249H283.345Z" fill="url(#paint0_linear_7_9055)"/>
<path d="M295.437 248C303.156 248 310.746 246.767 317.996 244.336C325.006 241.985 331.587 238.555 337.557 234.14C343.458 229.776 348.631 224.548 352.932 218.602C357.287 212.582 360.649 205.96 362.925 198.919L362.949 198.847L362.983 198.779C366.01 192.731 368.341 186.333 369.911 179.763C371.526 173.003 372.345 166.017 372.345 158.999C372.345 152.96 371.737 146.925 370.537 141.062C369.368 135.348 367.623 129.728 365.352 124.357C363.121 119.084 360.36 113.997 357.146 109.24C353.962 104.527 350.305 100.095 346.278 96.0672C342.25 92.0395 337.818 88.3828 333.105 85.1988C328.347 81.9845 323.261 79.2237 317.988 76.9932C312.617 74.7216 306.997 72.9769 301.283 71.8077C295.42 70.6079 289.384 69.9995 283.345 69.9995C273.346 69.9995 263.531 71.6451 254.172 74.8907L253.383 75.1645L252.973 74.4361C245.357 60.8942 234.279 49.5216 220.937 41.5478C214.189 37.5152 206.94 34.399 199.391 32.2857C191.602 30.1055 183.512 29 175.345 29C164.361 29 153.638 30.977 143.475 34.876C133.657 38.6427 124.65 44.0837 116.705 51.048C108.806 57.9722 102.251 66.1422 97.2213 75.3308C92.0685 84.7451 88.7006 94.9073 87.2113 105.535L87.0998 106.33L86.299 106.393C77.3408 107.094 68.7219 109.453 60.6818 113.403C52.8694 117.242 45.8932 122.434 39.947 128.834C27.7289 141.987 21 159.123 21 177.087C21 186.66 22.8748 195.947 26.5723 204.689C28.3495 208.891 30.5491 212.943 33.1102 216.734C35.6472 220.489 38.5607 224.02 41.7699 227.23C44.9791 230.439 48.5104 233.352 52.2655 235.889C56.0565 238.45 60.109 240.65 64.3106 242.427C73.0525 246.125 82.3391 248 91.9127 248H283.345H295.437ZM295.437 249H283.345H91.9127C52.1966 249 20 216.803 20 177.087C20 139.286 49.1646 108.297 86.221 105.396C92.3504 61.6574 129.917 28 175.345 28C209.048 28 238.422 46.5231 253.845 73.9459C263.087 70.7406 273.012 68.9995 283.345 68.9995C333.051 68.9995 373.345 109.294 373.345 158.999C373.345 173.459 369.936 187.121 363.877 199.227C354.54 228.109 327.427 249 295.437 249Z" fill="white" fill-opacity="0.5"/>
</g>
</g>
<defs>
<filter id="filter0_f_7_9055" x="16" y="24" width="361.345" height="293" filterUnits="userSpaceOnUse" color-interpolation-filters="sRGB">
<feFlood flood-opacity="0" result="BackgroundImageFix"/>
<feBlend mode="normal" in="SourceGraphic" in2="BackgroundImageFix" result="shape"/>
<feGaussianBlur stdDeviation="2" result="effect1_foregroundBlur_7_9055"/>
</filter>
<filter id="filter1_d_7_9055" x="0" y="0" width="413.345" height="281" filterUnits="userSpaceOnUse" color-interpolation-filters="sRGB">
<feFlood flood-opacity="0" result="BackgroundImageFix"/>
<feColorMatrix in="SourceAlpha" type="matrix" values="0 0 0 0 0 0 0 0 0 0 0 0 0 0 0 0 0 0 127 0" result="hardAlpha"/>
<feOffset dx="10" dy="2"/>
<feGaussianBlur stdDeviation="15"/>
<feColorMatrix type="matrix" values="0 0 0 0 0.501961 0 0 0 0 0.501961 0 0 0 0 0.501961 0 0 0 0.302 0"/>
<feBlend mode="normal" in2="BackgroundImageFix" result="effect1_dropShadow_7_9055"/>
<feBlend mode="normal" in="SourceGraphic" in2="effect1_dropShadow_7_9055" result="shape"/>
</filter>
<linearGradient id="paint0_linear_7_9055" x1="196.698" y1="28.0024" x2="299.341" y2="276.166" gradientUnits="userSpaceOnUse">
<stop stop-color="white" stop-opacity="0.604"/>
<stop offset="1" stop-color="white" stop-opacity="0.2"/>
</linearGradient>
</defs>
</svg>
