<svg width="266" height="100" viewBox="0 0 266 100" fill="none" xmlns="http://www.w3.org/2000/svg">
<g filter="url(#filter0_d_61_8091)">
<path d="M112 0H154C186 0 195.501 24.1398 205.732 48.6985C216.325 74.1247 227 100 262 100H4.00006C39.0001 100 49.6754 74.1247 60.2678 48.6985C70.4989 24.1398 80.0001 0 112 0Z" fill="url(#paint0_linear_61_8091)"/>
<path d="M112 0.25H154C169.923 0.25 180.229 6.24974 187.838 15.3006C195.21 24.0697 200.053 35.7041 204.994 47.575C205.163 47.9813 205.332 48.3879 205.502 48.7947L205.604 49.0418C210.863 61.6652 216.18 74.4274 224.525 84.0479C231.572 92.1732 240.777 98.0545 253.909 99.75H12.0914C25.2236 98.0545 34.4277 92.1732 41.4756 84.0479C49.8205 74.4273 55.137 61.6651 60.3957 49.0417L60.4986 48.7947C60.668 48.3879 60.8373 47.9813 61.0064 47.5751C65.9474 35.7041 70.79 24.0697 78.1619 15.3006C85.7708 6.24974 96.0772 0.25 112 0.25Z" stroke="#7582F4" stroke-opacity="0.5" stroke-width="0.5"/>
</g>
<defs>
<filter id="filter0_d_61_8091" x="6.10352e-05" y="0" width="266" height="108" filterUnits="userSpaceOnUse" color-interpolation-filters="sRGB">
<feFlood flood-opacity="0" result="BackgroundImageFix"/>
<feColorMatrix in="SourceAlpha" type="matrix" values="0 0 0 0 0 0 0 0 0 0 0 0 0 0 0 0 0 0 127 0" result="hardAlpha"/>
<feOffset dy="4"/>
<feGaussianBlur stdDeviation="2"/>
<feComposite in2="hardAlpha" operator="out"/>
<feColorMatrix type="matrix" values="0 0 0 0 0.458824 0 0 0 0 0.509804 0 0 0 0 0.956863 0 0 0 1 0"/>
<feBlend mode="normal" in2="BackgroundImageFix" result="effect1_dropShadow_61_8091"/>
<feBlend mode="normal" in="SourceGraphic" in2="effect1_dropShadow_61_8091" result="shape"/>
</filter>
<linearGradient id="paint0_linear_61_8091" x1="183.615" y1="100" x2="183.615" y2="0" gradientUnits="userSpaceOnUse">
<stop stop-color="#262C51"/>
<stop offset="1" stop-color="#3E3F74"/>
</linearGradient>
</defs>
</svg>
